<svg width="199" height="29" viewBox="0 0 199 29" fill="none" xmlns="http://www.w3.org/2000/svg">
<rect width="98" height="29" rx="14.5" fill="#2C2C2E"/>
<path fill-rule="evenodd" clip-rule="evenodd" d="M6.58301 14.5046C6.58301 10.135 10.1363 6.58337 14.4997 6.58337C18.863 6.58337 22.4163 10.135 22.4163 14.5046C22.4163 18.8651 18.863 22.4167 14.4997 22.4167C10.1363 22.4167 6.58301 18.8651 6.58301 14.5046ZM17.4035 15.3058C17.4875 15.2218 17.5945 15.092 17.6174 15.0614C17.7397 14.901 17.8008 14.7024 17.8008 14.5046C17.8008 14.2824 17.7321 14.0761 17.6022 13.9081C17.5915 13.8975 17.5707 13.8748 17.5435 13.8452C17.4927 13.7899 17.4197 13.7105 17.35 13.6408C16.7234 12.9686 15.0881 11.8688 14.2322 11.5327C14.1023 11.48 13.7737 11.3647 13.598 11.3571C13.4299 11.3571 13.2694 11.3952 13.1166 11.4716C12.9255 11.5786 12.7727 11.7466 12.6886 11.9452C12.6351 12.0827 12.5511 12.4951 12.5511 12.5027C12.467 12.9534 12.4212 13.6866 12.4212 14.4962C12.4212 15.2684 12.467 15.9703 12.5358 16.4286C12.5377 16.4305 12.5443 16.4633 12.5545 16.5142C12.5855 16.669 12.6502 16.9915 12.7192 17.1237C12.8873 17.4444 13.2159 17.643 13.5674 17.643H13.598C13.8272 17.6354 14.3086 17.4368 14.3086 17.4292C15.1186 17.0931 16.7157 16.0467 17.3576 15.3517L17.4035 15.3058Z" fill="white"/>
<path d="M33.5737 13.8252C34.2043 13.8252 34.7523 13.9331 35.2178 14.1489C35.6833 14.3605 36.043 14.6694 36.2969 15.0757C36.555 15.4819 36.6841 15.9749 36.6841 16.5547C36.6841 17.1895 36.5465 17.7375 36.2715 18.1987C35.9964 18.6558 35.6007 19.0091 35.0845 19.2588C34.5682 19.5042 33.9504 19.627 33.231 19.627C32.7485 19.627 32.3 19.5846 31.8853 19.5C31.4705 19.4154 31.1214 19.2884 30.8379 19.1191V18.1162C31.1468 18.3024 31.5213 18.4505 31.9614 18.5605C32.4015 18.6706 32.8289 18.7256 33.2437 18.7256C33.7134 18.7256 34.1239 18.6515 34.4751 18.5034C34.8306 18.3511 35.1056 18.1226 35.3003 17.8179C35.4992 17.509 35.5986 17.1217 35.5986 16.6562C35.5986 16.0384 35.4082 15.5623 35.0273 15.228C34.6507 14.8895 34.054 14.7202 33.2373 14.7202C32.9749 14.7202 32.6872 14.7414 32.374 14.7837C32.0609 14.826 31.8027 14.8726 31.5996 14.9233L31.0664 14.5742L31.4219 10.2197H36.0366V11.1846H32.3232L32.0884 13.9839C32.2492 13.95 32.4565 13.9162 32.7104 13.8823C32.9644 13.8442 33.2521 13.8252 33.5737 13.8252ZM37.96 16.4785V15.5391H41.1084V16.4785H37.96ZM46.1929 19.5H45.1646V12.9238C45.1646 12.6742 45.1646 12.4604 45.1646 12.2827C45.1688 12.1007 45.173 11.9357 45.1772 11.7876C45.1857 11.6353 45.1963 11.4808 45.209 11.3242C45.0778 11.4596 44.9551 11.576 44.8408 11.6733C44.7266 11.7664 44.5848 11.8828 44.4155 12.0225L43.3555 12.873L42.8032 12.1558L45.3169 10.2197H46.1929V19.5ZM55.8413 14.8472C55.8413 15.6004 55.7842 16.2733 55.6699 16.8657C55.5557 17.4582 55.3758 17.9596 55.1304 18.3701C54.8849 18.7806 54.5675 19.0938 54.1782 19.3096C53.7889 19.5212 53.3213 19.627 52.7754 19.627C52.0856 19.627 51.5143 19.4386 51.0615 19.062C50.613 18.6854 50.2765 18.1416 50.0522 17.4307C49.8322 16.7155 49.7222 15.8543 49.7222 14.8472C49.7222 13.8569 49.8216 13.0063 50.0205 12.2954C50.2236 11.5802 50.5495 11.0322 50.998 10.6514C51.4466 10.2663 52.0391 10.0737 52.7754 10.0737C53.4736 10.0737 54.0492 10.2642 54.502 10.645C54.9548 11.0216 55.2912 11.5675 55.5112 12.2827C55.7313 12.9937 55.8413 13.8485 55.8413 14.8472ZM50.7822 14.8472C50.7822 15.7104 50.8478 16.4299 50.979 17.0054C51.1102 17.5809 51.3218 18.0125 51.6138 18.3003C51.91 18.5838 52.2972 18.7256 52.7754 18.7256C53.2536 18.7256 53.6387 18.5838 53.9307 18.3003C54.2269 18.0168 54.4406 17.5872 54.5718 17.0117C54.7072 16.4362 54.7749 15.7147 54.7749 14.8472C54.7749 13.9966 54.7093 13.2856 54.5781 12.7144C54.4469 12.1388 54.2354 11.7072 53.9434 11.4194C53.6514 11.1274 53.262 10.9814 52.7754 10.9814C52.2887 10.9814 51.8994 11.1274 51.6074 11.4194C51.3154 11.7072 51.1038 12.1388 50.9727 12.7144C50.8457 13.2856 50.7822 13.9966 50.7822 14.8472ZM68.5493 12.416C69.3153 12.416 69.8929 12.617 70.2822 13.019C70.6715 13.4168 70.8662 14.0579 70.8662 14.9424V19.5H69.8252V14.9932C69.8252 14.4303 69.7025 14.0093 69.457 13.73C69.2158 13.4465 68.8561 13.3047 68.3779 13.3047C67.7051 13.3047 67.2163 13.4993 66.9116 13.8887C66.6069 14.278 66.4546 14.8514 66.4546 15.6089V19.5H65.4072V14.9932C65.4072 14.6165 65.3522 14.3034 65.2422 14.0537C65.1364 13.804 64.9756 13.6178 64.7598 13.4951C64.5482 13.3682 64.2795 13.3047 63.9536 13.3047C63.4924 13.3047 63.1221 13.3999 62.8428 13.5903C62.5635 13.7808 62.3604 14.0643 62.2334 14.4409C62.1107 14.8133 62.0493 15.2725 62.0493 15.8184V19.5H60.9956V12.543H61.8462L62.0049 13.5269H62.062C62.2017 13.2856 62.3773 13.0825 62.5889 12.9175C62.8005 12.7524 63.0374 12.6276 63.2998 12.543C63.5622 12.4583 63.8415 12.416 64.1377 12.416C64.6667 12.416 65.1089 12.5155 65.4644 12.7144C65.8241 12.909 66.0843 13.2074 66.2451 13.6094H66.3022C66.5308 13.2074 66.8439 12.909 67.2417 12.7144C67.6395 12.5155 68.0754 12.416 68.5493 12.416ZM74.0845 12.543V19.5H73.0308V12.543H74.0845ZM73.5703 9.94043C73.7438 9.94043 73.8919 9.99756 74.0146 10.1118C74.1416 10.2218 74.2051 10.3953 74.2051 10.6323C74.2051 10.8651 74.1416 11.0386 74.0146 11.1528C73.8919 11.2671 73.7438 11.3242 73.5703 11.3242C73.3883 11.3242 73.236 11.2671 73.1133 11.1528C72.9948 11.0386 72.9355 10.8651 72.9355 10.6323C72.9355 10.3953 72.9948 10.2218 73.1133 10.1118C73.236 9.99756 73.3883 9.94043 73.5703 9.94043ZM79.6133 12.416C80.4385 12.416 81.0627 12.6191 81.4858 13.0254C81.909 13.4274 82.1206 14.0749 82.1206 14.9678V19.5H81.0796V15.0376C81.0796 14.4578 80.9463 14.0241 80.6797 13.7363C80.4173 13.4486 80.0132 13.3047 79.4673 13.3047C78.6971 13.3047 78.1554 13.5226 77.8423 13.9585C77.5291 14.3944 77.3726 15.027 77.3726 15.8564V19.5H76.3188V12.543H77.1694L77.3281 13.5459H77.3853C77.5334 13.3005 77.7217 13.0952 77.9502 12.9302C78.1787 12.7609 78.4347 12.634 78.7183 12.5493C79.0018 12.4604 79.3001 12.416 79.6133 12.416Z" fill="white"/>
<rect x="109.5" width="89" height="29" rx="14.5" fill="#2C2C2E"/>
<path d="M130.69 15.9888C130.485 13.3913 129.239 11.7636 128.14 10.3272C127.122 8.99741 126.243 7.84907 126.243 6.15509C126.243 6.01903 126.164 5.89466 126.04 5.83231C125.915 5.76958 125.765 5.77985 125.651 5.85993C124 7.0065 122.623 8.93897 122.142 10.7828C121.808 12.0665 121.764 13.5097 121.757 14.4628C120.233 14.1467 119.887 11.9333 119.884 11.9092C119.867 11.7944 119.794 11.6945 119.689 11.6399C119.583 11.5861 119.458 11.5822 119.35 11.6339C119.27 11.6714 117.388 12.5998 117.279 16.3063C117.271 16.4296 117.271 16.5533 117.271 16.6769C117.271 20.2779 120.289 23.2077 124 23.2077C124.005 23.2081 124.01 23.2088 124.015 23.2077C124.016 23.2077 124.018 23.2077 124.019 23.2077C127.721 23.1974 130.729 20.2715 130.729 16.6769C130.729 16.4959 130.69 15.9888 130.69 15.9888ZM124 22.4821C122.763 22.4821 121.757 21.4418 121.757 20.1631C121.757 20.1195 121.756 20.0756 121.76 20.0217C121.774 19.4824 121.88 19.1143 121.996 18.8695C122.213 19.3216 122.6 19.7372 123.23 19.7372C123.437 19.7372 123.604 19.5749 123.604 19.3744C123.604 18.8578 123.615 18.2618 123.747 17.7239C123.865 17.247 124.147 16.7396 124.504 16.3329C124.663 16.8608 124.973 17.2881 125.275 17.7052C125.708 18.3018 126.155 18.9187 126.233 19.9707C126.238 20.033 126.243 20.0958 126.243 20.1631C126.243 21.4418 125.237 22.4821 124 22.4821Z" fill="white"/>
<path d="M146.222 19.5H140.141V18.6177L142.623 16.0977C143.084 15.6322 143.472 15.2174 143.785 14.8535C144.102 14.4896 144.343 14.132 144.508 13.7808C144.673 13.4253 144.756 13.036 144.756 12.6128C144.756 12.0881 144.599 11.6882 144.286 11.4131C143.977 11.1338 143.569 10.9941 143.061 10.9941C142.617 10.9941 142.223 11.0703 141.88 11.2227C141.538 11.375 141.186 11.5908 140.827 11.8701L140.262 11.1592C140.507 10.9518 140.774 10.7677 141.062 10.6069C141.354 10.4461 141.665 10.3192 141.995 10.2261C142.329 10.133 142.684 10.0864 143.061 10.0864C143.632 10.0864 144.125 10.1859 144.54 10.3848C144.955 10.5837 145.274 10.8672 145.499 11.2354C145.727 11.6035 145.841 12.0415 145.841 12.5493C145.841 13.0402 145.744 13.4972 145.549 13.9204C145.355 14.3394 145.082 14.7562 144.73 15.1709C144.379 15.5814 143.969 16.0173 143.499 16.4785L141.48 18.4907V18.5352H146.222V19.5ZM150.513 13.8252C151.144 13.8252 151.692 13.9331 152.157 14.1489C152.623 14.3605 152.982 14.6694 153.236 15.0757C153.494 15.4819 153.624 15.9749 153.624 16.5547C153.624 17.1895 153.486 17.7375 153.211 18.1987C152.936 18.6558 152.54 19.0091 152.024 19.2588C151.508 19.5042 150.89 19.627 150.17 19.627C149.688 19.627 149.239 19.5846 148.825 19.5C148.41 19.4154 148.061 19.2884 147.777 19.1191V18.1162C148.086 18.3024 148.461 18.4505 148.901 18.5605C149.341 18.6706 149.768 18.7256 150.183 18.7256C150.653 18.7256 151.063 18.6515 151.415 18.5034C151.77 18.3511 152.045 18.1226 152.24 17.8179C152.439 17.509 152.538 17.1217 152.538 16.6562C152.538 16.0384 152.348 15.5623 151.967 15.228C151.59 14.8895 150.993 14.7202 150.177 14.7202C149.914 14.7202 149.627 14.7414 149.313 14.7837C149 14.826 148.742 14.8726 148.539 14.9233L148.006 14.5742L148.361 10.2197H152.976V11.1846H149.263L149.028 13.9839C149.189 13.95 149.396 13.9162 149.65 13.8823C149.904 13.8442 150.192 13.8252 150.513 13.8252ZM161.152 14.8472C161.152 15.6004 161.095 16.2733 160.98 16.8657C160.866 17.4582 160.686 17.9596 160.441 18.3701C160.195 18.7806 159.878 19.0938 159.489 19.3096C159.099 19.5212 158.632 19.627 158.086 19.627C157.396 19.627 156.825 19.4386 156.372 19.062C155.924 18.6854 155.587 18.1416 155.363 17.4307C155.143 16.7155 155.033 15.8543 155.033 14.8472C155.033 13.8569 155.132 13.0063 155.331 12.2954C155.534 11.5802 155.86 11.0322 156.309 10.6514C156.757 10.2663 157.35 10.0737 158.086 10.0737C158.784 10.0737 159.36 10.2642 159.812 10.645C160.265 11.0216 160.602 11.5675 160.822 12.2827C161.042 12.9937 161.152 13.8485 161.152 14.8472ZM156.093 14.8472C156.093 15.7104 156.158 16.4299 156.29 17.0054C156.421 17.5809 156.632 18.0125 156.924 18.3003C157.221 18.5838 157.608 18.7256 158.086 18.7256C158.564 18.7256 158.949 18.5838 159.241 18.3003C159.537 18.0168 159.751 17.5872 159.882 17.0117C160.018 16.4362 160.085 15.7147 160.085 14.8472C160.085 13.9966 160.02 13.2856 159.889 12.7144C159.757 12.1388 159.546 11.7072 159.254 11.4194C158.962 11.1274 158.573 10.9814 158.086 10.9814C157.599 10.9814 157.21 11.1274 156.918 11.4194C156.626 11.7072 156.414 12.1388 156.283 12.7144C156.156 13.2856 156.093 13.9966 156.093 14.8472ZM170.432 11.0386C169.92 11.0386 169.459 11.1274 169.048 11.3052C168.642 11.4787 168.295 11.7326 168.007 12.0669C167.724 12.397 167.506 12.7969 167.354 13.2666C167.201 13.7363 167.125 14.2653 167.125 14.8535C167.125 15.6322 167.246 16.3092 167.487 16.8848C167.732 17.4561 168.096 17.8983 168.579 18.2114C169.065 18.5246 169.673 18.6812 170.4 18.6812C170.815 18.6812 171.204 18.6473 171.568 18.5796C171.937 18.5076 172.294 18.4188 172.641 18.313V19.2524C172.303 19.3794 171.947 19.4725 171.575 19.5317C171.202 19.5952 170.76 19.627 170.248 19.627C169.304 19.627 168.515 19.4323 167.88 19.043C167.25 18.6494 166.776 18.0951 166.458 17.3799C166.145 16.6647 165.989 15.8205 165.989 14.8472C165.989 14.1447 166.086 13.5036 166.281 12.9238C166.48 12.3398 166.767 11.8363 167.144 11.4131C167.525 10.9899 167.99 10.6641 168.541 10.4355C169.095 10.2028 169.73 10.0864 170.445 10.0864C170.915 10.0864 171.367 10.133 171.803 10.2261C172.239 10.3192 172.633 10.4525 172.984 10.626L172.552 11.54C172.256 11.4046 171.93 11.2882 171.575 11.1909C171.223 11.0894 170.843 11.0386 170.432 11.0386ZM177.097 12.4287C177.927 12.4287 178.542 12.6149 178.944 12.9873C179.346 13.3597 179.547 13.9543 179.547 14.771V19.5H178.779L178.576 18.4717H178.525C178.331 18.7256 178.128 18.9393 177.916 19.1128C177.704 19.2821 177.459 19.4111 177.18 19.5C176.905 19.5846 176.566 19.627 176.164 19.627C175.741 19.627 175.364 19.5529 175.034 19.4048C174.708 19.2567 174.45 19.0324 174.26 18.7319C174.074 18.4315 173.98 18.0506 173.98 17.5894C173.98 16.8953 174.256 16.3621 174.806 15.9897C175.356 15.6174 176.194 15.4142 177.319 15.3804L178.519 15.3296V14.9043C178.519 14.3034 178.39 13.8823 178.132 13.6411C177.874 13.3999 177.51 13.2793 177.04 13.2793C176.676 13.2793 176.329 13.3322 175.999 13.438C175.669 13.5438 175.356 13.6686 175.06 13.8125L174.736 13.0127C175.049 12.8519 175.409 12.7144 175.815 12.6001C176.221 12.4858 176.649 12.4287 177.097 12.4287ZM178.506 16.0723L177.446 16.1167C176.579 16.1506 175.967 16.2923 175.612 16.542C175.256 16.7917 175.079 17.145 175.079 17.6021C175.079 17.9998 175.199 18.2939 175.44 18.4844C175.682 18.6748 176.001 18.77 176.399 18.77C177.017 18.77 177.522 18.5986 177.916 18.2559C178.31 17.9131 178.506 17.3989 178.506 16.7134V16.0723ZM182.778 19.5H181.718V9.62305H182.778V19.5Z" fill="white"/>
</svg>
